<mxfile><diagram id="Bx8kgQSa1X5QlFmJYDPJ" name="Page-1"><mxGraphModel dx="1835" dy="1438" grid="1" gridSize="10" guides="1" tooltips="1" connect="1" arrows="1" fold="1" page="1" pageScale="1" pageWidth="1920" pageHeight="1200" background="#ffffff" math="0" shadow="0"><root><mxCell id="0"/><mxCell id="1" parent="0"/><mxCell id="4" value="" style="edgeStyle=orthogonalEdgeStyle;rounded=0;orthogonalLoop=1;jettySize=auto;html=1;" parent="1" source="2" target="3" edge="1"><mxGeometry relative="1" as="geometry"/></mxCell><mxCell id="6" value="" style="edgeStyle=orthogonalEdgeStyle;rounded=0;orthogonalLoop=1;jettySize=auto;html=1;" parent="1" source="2" target="5" edge="1"><mxGeometry relative="1" as="geometry"/></mxCell><mxCell id="200" style="edgeStyle=orthogonalEdgeStyle;rounded=0;orthogonalLoop=1;jettySize=auto;html=1;exitX=0;exitY=0.5;exitDx=0;exitDy=0;entryX=0.376;entryY=0.027;entryDx=0;entryDy=0;entryPerimeter=0;" parent="1" source="2" target="17" edge="1"><mxGeometry relative="1" as="geometry"/></mxCell><mxCell id="201" style="edgeStyle=orthogonalEdgeStyle;rounded=0;orthogonalLoop=1;jettySize=auto;html=1;exitX=0;exitY=0;exitDx=0;exitDy=0;" parent="1" source="2" target="202" edge="1"><mxGeometry relative="1" as="geometry"><mxPoint x="249.99999999999977" y="260" as="targetPoint"/></mxGeometry></mxCell><mxCell id="2" value="ثبت سفارش" style="ellipse;whiteSpace=wrap;html=1;fillColor=#60a917;strokeColor=#2D7600;fontColor=#ffffff;" parent="1" vertex="1"><mxGeometry x="675" y="110" width="120" height="80" as="geometry"/></mxCell><mxCell id="89" style="edgeStyle=orthogonalEdgeStyle;rounded=0;orthogonalLoop=1;jettySize=auto;html=1;exitX=0.5;exitY=1;exitDx=0;exitDy=0;entryX=0.553;entryY=0;entryDx=0;entryDy=0;entryPerimeter=0;" parent="1" source="3" target="80" edge="1"><mxGeometry relative="1" as="geometry"/></mxCell><mxCell id="3" value="ثبت سفارش خارجی&amp;nbsp;" style="whiteSpace=wrap;html=1;fillColor=#0050ef;strokeColor=#001DBC;fontColor=#ffffff;" parent="1" vertex="1"><mxGeometry x="1460" y="210" width="110" height="40" as="geometry"/></mxCell><mxCell id="8" value="" style="edgeStyle=orthogonalEdgeStyle;rounded=0;orthogonalLoop=1;jettySize=auto;html=1;" parent="1" source="5" target="7" edge="1"><mxGeometry relative="1" as="geometry"/></mxCell><mxCell id="43" style="edgeStyle=orthogonalEdgeStyle;rounded=0;orthogonalLoop=1;jettySize=auto;html=1;exitX=1;exitY=0.75;exitDx=0;exitDy=0;entryX=0.5;entryY=0;entryDx=0;entryDy=0;" parent="1" source="5" target="9" edge="1"><mxGeometry relative="1" as="geometry"/></mxCell><mxCell id="103" style="edgeStyle=orthogonalEdgeStyle;rounded=0;orthogonalLoop=1;jettySize=auto;html=1;exitX=0.5;exitY=1;exitDx=0;exitDy=0;entryX=0.75;entryY=0;entryDx=0;entryDy=0;" parent="1" source="5" target="10" edge="1"><mxGeometry relative="1" as="geometry"/></mxCell><mxCell id="5" value="ثبت سفارش داخلی" style="whiteSpace=wrap;html=1;fillColor=#0050ef;strokeColor=#001DBC;fontColor=#ffffff;" parent="1" vertex="1"><mxGeometry x="920" y="200" width="120" height="40" as="geometry"/></mxCell><mxCell id="20" value="" style="edgeStyle=orthogonalEdgeStyle;rounded=0;orthogonalLoop=1;jettySize=auto;html=1;" parent="1" source="7" target="19" edge="1"><mxGeometry relative="1" as="geometry"/></mxCell><mxCell id="7" value="پرداخت آنلاین -پیش کرایه" style="whiteSpace=wrap;html=1;fillColor=#0050ef;strokeColor=#001DBC;fontColor=#ffffff;" parent="1" vertex="1"><mxGeometry x="1290" y="270" width="100" height="40" as="geometry"/></mxCell><mxCell id="45" value="" style="edgeStyle=orthogonalEdgeStyle;rounded=0;orthogonalLoop=1;jettySize=auto;html=1;" parent="1" source="9" target="44" edge="1"><mxGeometry relative="1" as="geometry"/></mxCell><mxCell id="9" value="COD&lt;span style=&quot;white-space: pre&quot;&gt;&#9;&lt;/span&gt;" style="whiteSpace=wrap;html=1;fillColor=#0050ef;strokeColor=#001DBC;fontColor=#ffffff;" parent="1" vertex="1"><mxGeometry x="1165" y="270" width="80" height="30" as="geometry"/></mxCell><mxCell id="142" value="" style="edgeStyle=orthogonalEdgeStyle;rounded=0;orthogonalLoop=1;jettySize=auto;html=1;" parent="1" source="10" target="141" edge="1"><mxGeometry relative="1" as="geometry"/></mxCell><mxCell id="10" value="سازمانی" style="whiteSpace=wrap;html=1;fillColor=#0050ef;strokeColor=#001DBC;fontColor=#ffffff;" parent="1" vertex="1"><mxGeometry x="910" y="270" width="100" height="40" as="geometry"/></mxCell><mxCell id="105" value="" style="edgeStyle=orthogonalEdgeStyle;rounded=0;orthogonalLoop=1;jettySize=auto;html=1;" parent="1" source="17" target="104" edge="1"><mxGeometry relative="1" as="geometry"/></mxCell><mxCell id="107" value="" style="edgeStyle=orthogonalEdgeStyle;rounded=0;orthogonalLoop=1;jettySize=auto;html=1;" parent="1" source="17" target="106" edge="1"><mxGeometry relative="1" as="geometry"/></mxCell><mxCell id="17" value="شاپکس" style="whiteSpace=wrap;html=1;fillColor=#0050ef;strokeColor=#001DBC;fontColor=#ffffff;" parent="1" vertex="1"><mxGeometry x="610" y="270" width="80" height="30" as="geometry"/></mxCell><mxCell id="24" style="edgeStyle=orthogonalEdgeStyle;rounded=0;orthogonalLoop=1;jettySize=auto;html=1;" parent="1" source="19" target="21" edge="1"><mxGeometry relative="1" as="geometry"/></mxCell><mxCell id="19" value="انتخاب آدرس" style="shape=parallelogram;perimeter=parallelogramPerimeter;whiteSpace=wrap;html=1;fixedSize=1;fillColor=#1ba1e2;strokeColor=#006EAF;fontColor=#ffffff;" parent="1" vertex="1"><mxGeometry x="1300" y="330" width="100" height="40" as="geometry"/></mxCell><mxCell id="25" style="edgeStyle=orthogonalEdgeStyle;rounded=0;orthogonalLoop=1;jettySize=auto;html=1;" parent="1" source="21" target="22" edge="1"><mxGeometry relative="1" as="geometry"/></mxCell><mxCell id="21" value="اطلاعات مرسوله" style="shape=parallelogram;perimeter=parallelogramPerimeter;whiteSpace=wrap;html=1;fixedSize=1;fillColor=#1ba1e2;strokeColor=#006EAF;fontColor=#ffffff;" parent="1" vertex="1"><mxGeometry x="1290" y="380" width="120" height="40" as="geometry"/></mxCell><mxCell id="27" value="" style="edgeStyle=orthogonalEdgeStyle;rounded=0;orthogonalLoop=1;jettySize=auto;html=1;" parent="1" source="22" target="26" edge="1"><mxGeometry relative="1" as="geometry"/></mxCell><mxCell id="22" value="انتخاب گیرنده" style="shape=parallelogram;perimeter=parallelogramPerimeter;whiteSpace=wrap;html=1;fixedSize=1;fillColor=#1ba1e2;strokeColor=#006EAF;fontColor=#ffffff;" parent="1" vertex="1"><mxGeometry x="1300" y="450" width="100" height="25" as="geometry"/></mxCell><mxCell id="29" value="" style="edgeStyle=orthogonalEdgeStyle;rounded=0;orthogonalLoop=1;jettySize=auto;html=1;" parent="1" source="26" target="28" edge="1"><mxGeometry relative="1" as="geometry"/></mxCell><mxCell id="26" value="انتخاب سرویس" style="whiteSpace=wrap;html=1;fillColor=#0050ef;strokeColor=#001DBC;fontColor=#ffffff;" parent="1" vertex="1"><mxGeometry x="1307.5" y="510" width="85" height="40" as="geometry"/></mxCell><mxCell id="30" style="edgeStyle=orthogonalEdgeStyle;rounded=0;orthogonalLoop=1;jettySize=auto;html=1;exitX=1;exitY=0.5;exitDx=0;exitDy=0;entryX=1;entryY=0.5;entryDx=0;entryDy=0;" parent="1" source="28" target="21" edge="1"><mxGeometry relative="1" as="geometry"><Array as="points"><mxPoint x="1430" y="625"/><mxPoint x="1430" y="400"/></Array></mxGeometry></mxCell><mxCell id="37" style="edgeStyle=orthogonalEdgeStyle;rounded=0;orthogonalLoop=1;jettySize=auto;html=1;exitX=0.5;exitY=1;exitDx=0;exitDy=0;entryX=0.5;entryY=0;entryDx=0;entryDy=0;" parent="1" source="28" target="35" edge="1"><mxGeometry relative="1" as="geometry"/></mxCell><mxCell id="28" value="بررسی اطلاعات و انتخاب مرسوله جدی" style="rhombus;whiteSpace=wrap;html=1;fillColor=#a20025;strokeColor=#6F0000;fontColor=#ffffff;" parent="1" vertex="1"><mxGeometry x="1287.5" y="590" width="110" height="70" as="geometry"/></mxCell><mxCell id="39" value="" style="edgeStyle=orthogonalEdgeStyle;rounded=0;orthogonalLoop=1;jettySize=auto;html=1;" parent="1" source="35" target="38" edge="1"><mxGeometry relative="1" as="geometry"/></mxCell><mxCell id="35" value="تایید اطلاعات" style="shape=parallelogram;perimeter=parallelogramPerimeter;whiteSpace=wrap;html=1;fixedSize=1;fillColor=#1ba1e2;strokeColor=#006EAF;fontColor=#ffffff;" parent="1" vertex="1"><mxGeometry x="1300" y="690" width="85" height="40" as="geometry"/></mxCell><mxCell id="41" value="" style="edgeStyle=orthogonalEdgeStyle;rounded=0;orthogonalLoop=1;jettySize=auto;html=1;" parent="1" source="38" target="40" edge="1"><mxGeometry relative="1" as="geometry"/></mxCell><mxCell id="38" value="پرداخت آنلاین&amp;nbsp;" style="whiteSpace=wrap;html=1;fillColor=#0050ef;strokeColor=#001DBC;fontColor=#ffffff;" parent="1" vertex="1"><mxGeometry x="1319.38" y="760" width="61.25" height="20" as="geometry"/></mxCell><mxCell id="40" value="دریافت کد رهگیری&amp;nbsp;" style="shape=document;whiteSpace=wrap;html=1;boundedLbl=1;fillColor=#008a00;strokeColor=#005700;fontColor=#ffffff;" parent="1" vertex="1"><mxGeometry x="1305.3200000000002" y="860" width="89.38" height="40" as="geometry"/></mxCell><mxCell id="49" style="edgeStyle=orthogonalEdgeStyle;rounded=0;orthogonalLoop=1;jettySize=auto;html=1;exitX=1;exitY=0.5;exitDx=0;exitDy=0;" parent="1" source="44" target="48" edge="1"><mxGeometry relative="1" as="geometry"/></mxCell><mxCell id="56" value="" style="edgeStyle=orthogonalEdgeStyle;rounded=0;orthogonalLoop=1;jettySize=auto;html=1;" parent="1" source="44" target="55" edge="1"><mxGeometry relative="1" as="geometry"/></mxCell><mxCell id="44" value="ثبت نام در&amp;nbsp;&lt;br&gt;cod" style="rhombus;whiteSpace=wrap;html=1;fillColor=#a20025;strokeColor=#6F0000;fontColor=#ffffff;" parent="1" vertex="1"><mxGeometry x="1165" y="320" width="80" height="80" as="geometry"/></mxCell><mxCell id="48" value="ثبت درخواست&amp;nbsp;" style="rounded=1;whiteSpace=wrap;html=1;fillColor=#0050ef;strokeColor=#001DBC;fontColor=#ffffff;" parent="1" vertex="1"><mxGeometry x="1190" y="430" width="70" height="30" as="geometry"/></mxCell><mxCell id="52" style="edgeStyle=orthogonalEdgeStyle;rounded=0;orthogonalLoop=1;jettySize=auto;html=1;exitX=0.5;exitY=0;exitDx=0;exitDy=0;entryX=0.5;entryY=1;entryDx=0;entryDy=0;" parent="1" source="50" target="48" edge="1"><mxGeometry relative="1" as="geometry"/></mxCell><mxCell id="54" value="" style="edgeStyle=orthogonalEdgeStyle;rounded=0;orthogonalLoop=1;jettySize=auto;html=1;" parent="1" source="50" target="53" edge="1"><mxGeometry relative="1" as="geometry"/></mxCell><mxCell id="50" value="تماس پشتیبانی با شما" style="whiteSpace=wrap;html=1;rounded=1;fillColor=#0050ef;strokeColor=#001DBC;fontColor=#ffffff;" parent="1" vertex="1"><mxGeometry x="1182.5" y="500" width="85" height="25" as="geometry"/></mxCell><mxCell id="73" style="edgeStyle=orthogonalEdgeStyle;rounded=0;orthogonalLoop=1;jettySize=auto;html=1;exitX=0;exitY=0.25;exitDx=0;exitDy=0;entryX=1;entryY=0.25;entryDx=0;entryDy=0;" parent="1" source="53" target="55" edge="1"><mxGeometry relative="1" as="geometry"><mxPoint x="1160" y="430" as="targetPoint"/><Array as="points"><mxPoint x="1202" y="540"/><mxPoint x="1160" y="540"/><mxPoint x="1160" y="438"/></Array></mxGeometry></mxCell><mxCell id="53" value="فعال سازی بعد از 4 ساعت" style="shape=document;whiteSpace=wrap;html=1;boundedLbl=1;rounded=1;fillColor=#60a917;strokeColor=#2D7600;fontColor=#ffffff;" parent="1" vertex="1"><mxGeometry x="1202.5" y="550" width="65" height="37.5" as="geometry"/></mxCell><mxCell id="58" value="" style="edgeStyle=orthogonalEdgeStyle;rounded=0;orthogonalLoop=1;jettySize=auto;html=1;" parent="1" source="55" target="57" edge="1"><mxGeometry relative="1" as="geometry"/></mxCell><mxCell id="55" value="انتخاب آدرس" style="shape=parallelogram;perimeter=parallelogramPerimeter;whiteSpace=wrap;html=1;fixedSize=1;fillColor=#1ba1e2;strokeColor=#006EAF;fontColor=#ffffff;" parent="1" vertex="1"><mxGeometry x="1057.5" y="430" width="95" height="30" as="geometry"/></mxCell><mxCell id="60" value="" style="edgeStyle=orthogonalEdgeStyle;rounded=0;orthogonalLoop=1;jettySize=auto;html=1;" parent="1" source="57" target="59" edge="1"><mxGeometry relative="1" as="geometry"/></mxCell><mxCell id="57" value="اطلاعات مرسوله" style="shape=parallelogram;perimeter=parallelogramPerimeter;whiteSpace=wrap;html=1;fixedSize=1;fillColor=#1ba1e2;strokeColor=#006EAF;fontColor=#ffffff;" parent="1" vertex="1"><mxGeometry x="1057.5" y="500" width="95" height="25" as="geometry"/></mxCell><mxCell id="215" style="edgeStyle=orthogonalEdgeStyle;rounded=0;orthogonalLoop=1;jettySize=auto;html=1;exitX=0.5;exitY=1;exitDx=0;exitDy=0;entryX=0.75;entryY=0;entryDx=0;entryDy=0;" parent="1" source="59" target="213" edge="1"><mxGeometry relative="1" as="geometry"/></mxCell><mxCell id="216" style="edgeStyle=orthogonalEdgeStyle;rounded=0;orthogonalLoop=1;jettySize=auto;html=1;exitX=1;exitY=0.5;exitDx=0;exitDy=0;entryX=0.5;entryY=0;entryDx=0;entryDy=0;" parent="1" source="59" target="214" edge="1"><mxGeometry relative="1" as="geometry"/></mxCell><mxCell id="59" value="انتخاب گیرنده" style="shape=parallelogram;perimeter=parallelogramPerimeter;whiteSpace=wrap;html=1;fixedSize=1;fillColor=#1ba1e2;strokeColor=#006EAF;fontColor=#ffffff;" parent="1" vertex="1"><mxGeometry x="1062.5" y="550" width="95" height="22.5" as="geometry"/></mxCell><mxCell id="64" value="" style="edgeStyle=orthogonalEdgeStyle;rounded=0;orthogonalLoop=1;jettySize=auto;html=1;" parent="1" source="61" target="63" edge="1"><mxGeometry relative="1" as="geometry"/></mxCell><mxCell id="61" value="انتخاب سرویس" style="whiteSpace=wrap;html=1;fillColor=#0050ef;strokeColor=#001DBC;fontColor=#ffffff;" parent="1" vertex="1"><mxGeometry x="1067.5" y="660" width="85" height="31.25" as="geometry"/></mxCell><mxCell id="66" value="" style="edgeStyle=orthogonalEdgeStyle;rounded=0;orthogonalLoop=1;jettySize=auto;html=1;" parent="1" source="63" target="65" edge="1"><mxGeometry relative="1" as="geometry"/></mxCell><mxCell id="71" style="edgeStyle=orthogonalEdgeStyle;rounded=0;orthogonalLoop=1;jettySize=auto;html=1;exitX=0;exitY=0.5;exitDx=0;exitDy=0;entryX=0;entryY=0.5;entryDx=0;entryDy=0;" parent="1" source="63" target="57" edge="1"><mxGeometry relative="1" as="geometry"><Array as="points"><mxPoint x="1050" y="705"/><mxPoint x="1050" y="513"/></Array></mxGeometry></mxCell><mxCell id="63" value="&lt;font style=&quot;font-size: 5px&quot;&gt;&lt;span&gt;بررسی اطلاعات و انتخاب مرسوله جدی&lt;/span&gt;بررسی اطلاعات و انتخاب مرسوله جدی&lt;/font&gt;" style="rhombus;whiteSpace=wrap;html=1;fillColor=#a20025;strokeColor=#6F0000;fontColor=#ffffff;" parent="1" vertex="1"><mxGeometry x="1067.5" y="711.25" width="85" height="70" as="geometry"/></mxCell><mxCell id="68" value="" style="edgeStyle=orthogonalEdgeStyle;rounded=0;orthogonalLoop=1;jettySize=auto;html=1;" parent="1" source="65" edge="1"><mxGeometry relative="1" as="geometry"><mxPoint x="1118.8" y="840" as="targetPoint"/></mxGeometry></mxCell><mxCell id="65" value="تایید اطلاعات" style="shape=parallelogram;perimeter=parallelogramPerimeter;whiteSpace=wrap;html=1;fixedSize=1;fillColor=#1ba1e2;strokeColor=#006EAF;fontColor=#ffffff;" parent="1" vertex="1"><mxGeometry x="1056.25" y="796.56" width="97.5" height="35" as="geometry"/></mxCell><mxCell id="69" value="دریافت کد رهگیری" style="shape=document;whiteSpace=wrap;html=1;boundedLbl=1;fillColor=#008a00;strokeColor=#005700;fontColor=#ffffff;" parent="1" vertex="1"><mxGeometry x="1080" y="940" width="85" height="40" as="geometry"/></mxCell><mxCell id="76" value="" style="edgeStyle=orthogonalEdgeStyle;rounded=0;orthogonalLoop=1;jettySize=auto;html=1;" parent="1" source="74" target="75" edge="1"><mxGeometry relative="1" as="geometry"/></mxCell><mxCell id="78" style="edgeStyle=orthogonalEdgeStyle;rounded=0;orthogonalLoop=1;jettySize=auto;html=1;exitX=0.5;exitY=1;exitDx=0;exitDy=0;entryX=0.345;entryY=0.041;entryDx=0;entryDy=0;entryPerimeter=0;" parent="1" source="74" target="69" edge="1"><mxGeometry relative="1" as="geometry"/></mxCell><mxCell id="74" value="کیف پول شارژ باشد" style="rhombus;whiteSpace=wrap;html=1;fillColor=#a20025;strokeColor=#6F0000;fontColor=#ffffff;" parent="1" vertex="1"><mxGeometry x="1072.5" y="840" width="80" height="80" as="geometry"/></mxCell><mxCell id="77" style="edgeStyle=orthogonalEdgeStyle;rounded=0;orthogonalLoop=1;jettySize=auto;html=1;exitX=0.25;exitY=1;exitDx=0;exitDy=0;entryX=0.75;entryY=0;entryDx=0;entryDy=0;" parent="1" source="75" target="69" edge="1"><mxGeometry relative="1" as="geometry"/></mxCell><mxCell id="75" value="شارژ کیف پول&amp;nbsp;" style="shape=parallelogram;perimeter=parallelogramPerimeter;whiteSpace=wrap;html=1;fixedSize=1;fillColor=#1ba1e2;strokeColor=#006EAF;fontColor=#ffffff;" parent="1" vertex="1"><mxGeometry x="1219" y="890" width="71" height="40" as="geometry"/></mxCell><mxCell id="91" style="edgeStyle=orthogonalEdgeStyle;rounded=0;orthogonalLoop=1;jettySize=auto;html=1;exitX=0.5;exitY=1;exitDx=0;exitDy=0;entryX=0.5;entryY=0;entryDx=0;entryDy=0;" parent="1" source="79" target="82" edge="1"><mxGeometry relative="1" as="geometry"/></mxCell><mxCell id="79" value="اطلاعات مرسوله" style="shape=parallelogram;perimeter=parallelogramPerimeter;whiteSpace=wrap;html=1;fixedSize=1;fillColor=#1ba1e2;strokeColor=#006EAF;fontColor=#ffffff;" parent="1" vertex="1"><mxGeometry x="1480" y="340" width="100" height="40" as="geometry"/></mxCell><mxCell id="90" style="edgeStyle=orthogonalEdgeStyle;rounded=0;orthogonalLoop=1;jettySize=auto;html=1;exitX=0.5;exitY=1;exitDx=0;exitDy=0;" parent="1" source="80" target="79" edge="1"><mxGeometry relative="1" as="geometry"/></mxCell><mxCell id="80" value="آدرس فرستنده" style="shape=parallelogram;perimeter=parallelogramPerimeter;whiteSpace=wrap;html=1;fixedSize=1;fillColor=#1ba1e2;strokeColor=#006EAF;fontColor=#ffffff;" parent="1" vertex="1"><mxGeometry x="1470" y="270" width="100" height="40" as="geometry"/></mxCell><mxCell id="93" style="edgeStyle=orthogonalEdgeStyle;rounded=0;orthogonalLoop=1;jettySize=auto;html=1;exitX=0.5;exitY=1;exitDx=0;exitDy=0;" parent="1" source="81" target="84" edge="1"><mxGeometry relative="1" as="geometry"/></mxCell><mxCell id="81" value="آدرس گیرنده" style="shape=parallelogram;perimeter=parallelogramPerimeter;whiteSpace=wrap;html=1;fixedSize=1;fillColor=#1ba1e2;strokeColor=#006EAF;fontColor=#ffffff;" parent="1" vertex="1"><mxGeometry x="1480" y="480" width="100" height="40" as="geometry"/></mxCell><mxCell id="92" style="edgeStyle=orthogonalEdgeStyle;rounded=0;orthogonalLoop=1;jettySize=auto;html=1;exitX=0.5;exitY=1;exitDx=0;exitDy=0;entryX=0.5;entryY=0;entryDx=0;entryDy=0;" parent="1" source="82" target="81" edge="1"><mxGeometry relative="1" as="geometry"/></mxCell><mxCell id="82" value="وارد کردن عکس مرسولات" style="shape=parallelogram;perimeter=parallelogramPerimeter;whiteSpace=wrap;html=1;fixedSize=1;fillColor=#1ba1e2;strokeColor=#006EAF;fontColor=#ffffff;" parent="1" vertex="1"><mxGeometry x="1480" y="410" width="100" height="40" as="geometry"/></mxCell><mxCell id="140" style="edgeStyle=orthogonalEdgeStyle;rounded=0;orthogonalLoop=1;jettySize=auto;html=1;exitX=0.5;exitY=1;exitDx=0;exitDy=0;" parent="1" source="84" target="86" edge="1"><mxGeometry relative="1" as="geometry"/></mxCell><mxCell id="84" value="انتخاب سرویس" style="whiteSpace=wrap;html=1;fillColor=#0050ef;strokeColor=#001DBC;fontColor=#ffffff;" parent="1" vertex="1"><mxGeometry x="1485" y="555" width="85" height="40" as="geometry"/></mxCell><mxCell id="99" style="edgeStyle=orthogonalEdgeStyle;rounded=0;orthogonalLoop=1;jettySize=auto;html=1;exitX=0;exitY=0.5;exitDx=0;exitDy=0;" parent="1" source="86" target="100" edge="1"><mxGeometry relative="1" as="geometry"><mxPoint x="1480" y="880" as="targetPoint"/></mxGeometry></mxCell><mxCell id="101" style="edgeStyle=orthogonalEdgeStyle;rounded=0;orthogonalLoop=1;jettySize=auto;html=1;exitX=1;exitY=0.5;exitDx=0;exitDy=0;entryX=1;entryY=0.5;entryDx=0;entryDy=0;" parent="1" source="86" target="88" edge="1"><mxGeometry relative="1" as="geometry"><Array as="points"><mxPoint x="1580" y="655"/><mxPoint x="1580" y="730"/></Array></mxGeometry></mxCell><mxCell id="139" style="edgeStyle=orthogonalEdgeStyle;rounded=0;orthogonalLoop=1;jettySize=auto;html=1;exitX=1;exitY=0;exitDx=0;exitDy=0;entryX=0.75;entryY=1;entryDx=0;entryDy=0;" parent="1" source="86" target="84" edge="1"><mxGeometry relative="1" as="geometry"/></mxCell><mxCell id="86" value="تایید توسط پشتیبانی" style="rhombus;whiteSpace=wrap;html=1;fillColor=#a20025;strokeColor=#6F0000;fontColor=#ffffff;" parent="1" vertex="1"><mxGeometry x="1465" y="630" width="110" height="70" as="geometry"/></mxCell><mxCell id="98" style="edgeStyle=orthogonalEdgeStyle;rounded=0;orthogonalLoop=1;jettySize=auto;html=1;exitX=0.5;exitY=1;exitDx=0;exitDy=0;" parent="1" source="88" target="97" edge="1"><mxGeometry relative="1" as="geometry"/></mxCell><mxCell id="88" value="پرداخت آنلاین&amp;nbsp;" style="whiteSpace=wrap;html=1;fillColor=#0050ef;strokeColor=#001DBC;fontColor=#ffffff;" parent="1" vertex="1"><mxGeometry x="1499.38" y="720" width="61.25" height="20" as="geometry"/></mxCell><mxCell id="97" value="دریافت کد رهگیری&amp;nbsp;" style="shape=document;whiteSpace=wrap;html=1;boundedLbl=1;fillColor=#008a00;strokeColor=#005700;fontColor=#ffffff;" parent="1" vertex="1"><mxGeometry x="1490.6200000000001" y="780" width="89.38" height="40" as="geometry"/></mxCell><mxCell id="100" value="لغو ارسال&amp;nbsp;" style="rounded=1;whiteSpace=wrap;html=1;fillColor=#0050ef;strokeColor=#001DBC;fontColor=#ffffff;" parent="1" vertex="1"><mxGeometry x="1420" y="860" width="90" height="40" as="geometry"/></mxCell><mxCell id="109" value="" style="edgeStyle=orthogonalEdgeStyle;rounded=0;orthogonalLoop=1;jettySize=auto;html=1;" parent="1" source="104" target="108" edge="1"><mxGeometry relative="1" as="geometry"/></mxCell><mxCell id="104" value="ثبت سفارش جدید" style="whiteSpace=wrap;html=1;fillColor=#0050ef;strokeColor=#001DBC;fontColor=#ffffff;" parent="1" vertex="1"><mxGeometry x="605" y="340" width="90" height="60" as="geometry"/></mxCell><mxCell id="121" style="edgeStyle=orthogonalEdgeStyle;rounded=0;orthogonalLoop=1;jettySize=auto;html=1;exitX=0.5;exitY=1;exitDx=0;exitDy=0;entryX=0.75;entryY=0;entryDx=0;entryDy=0;" parent="1" source="106" target="114" edge="1"><mxGeometry relative="1" as="geometry"/></mxCell><mxCell id="106" value="ثبت سفارش از روی محصولات" style="whiteSpace=wrap;html=1;fillColor=#0050ef;strokeColor=#001DBC;fontColor=#ffffff;" parent="1" vertex="1"><mxGeometry x="390" y="340" width="150" height="60" as="geometry"/></mxCell><mxCell id="112" style="edgeStyle=orthogonalEdgeStyle;rounded=0;orthogonalLoop=1;jettySize=auto;html=1;exitX=0.5;exitY=1;exitDx=0;exitDy=0;entryX=0.5;entryY=0;entryDx=0;entryDy=0;" parent="1" source="108" target="110" edge="1"><mxGeometry relative="1" as="geometry"/></mxCell><mxCell id="108" value="وارد کردن مشخصات فرستنده" style="shape=parallelogram;perimeter=parallelogramPerimeter;whiteSpace=wrap;html=1;fixedSize=1;fillColor=#1ba1e2;strokeColor=#006EAF;fontColor=#ffffff;" parent="1" vertex="1"><mxGeometry x="590" y="432.5" width="120" height="60" as="geometry"/></mxCell><mxCell id="113" style="edgeStyle=orthogonalEdgeStyle;rounded=0;orthogonalLoop=1;jettySize=auto;html=1;exitX=0.5;exitY=1;exitDx=0;exitDy=0;" parent="1" source="110" target="111" edge="1"><mxGeometry relative="1" as="geometry"/></mxCell><mxCell id="110" value="آدرس گیرنده" style="shape=parallelogram;perimeter=parallelogramPerimeter;whiteSpace=wrap;html=1;fixedSize=1;fillColor=#1ba1e2;strokeColor=#006EAF;fontColor=#ffffff;" parent="1" vertex="1"><mxGeometry x="585" y="520" width="110" height="60" as="geometry"/></mxCell><mxCell id="120" style="edgeStyle=orthogonalEdgeStyle;rounded=0;orthogonalLoop=1;jettySize=auto;html=1;exitX=0.5;exitY=1;exitDx=0;exitDy=0;entryX=0.5;entryY=0;entryDx=0;entryDy=0;" parent="1" source="111" target="115" edge="1"><mxGeometry relative="1" as="geometry"/></mxCell><mxCell id="111" value="خدمات ارزش افزوده" style="shape=parallelogram;perimeter=parallelogramPerimeter;whiteSpace=wrap;html=1;fixedSize=1;fillColor=#1ba1e2;strokeColor=#006EAF;fontColor=#ffffff;" parent="1" vertex="1"><mxGeometry x="560" y="625" width="130" height="60" as="geometry"/></mxCell><mxCell id="123" style="edgeStyle=orthogonalEdgeStyle;rounded=0;orthogonalLoop=1;jettySize=auto;html=1;exitX=0.5;exitY=1;exitDx=0;exitDy=0;entryX=0.5;entryY=0;entryDx=0;entryDy=0;" parent="1" source="114" target="122" edge="1"><mxGeometry relative="1" as="geometry"/></mxCell><mxCell id="114" value="وارد کردن مشخصات گیرنده" style="shape=parallelogram;perimeter=parallelogramPerimeter;whiteSpace=wrap;html=1;fixedSize=1;fillColor=#1ba1e2;strokeColor=#006EAF;fontColor=#ffffff;" parent="1" vertex="1"><mxGeometry x="330" y="430" width="160" height="60" as="geometry"/></mxCell><mxCell id="117" value="" style="edgeStyle=orthogonalEdgeStyle;rounded=0;orthogonalLoop=1;jettySize=auto;html=1;" parent="1" source="115" target="116" edge="1"><mxGeometry relative="1" as="geometry"/></mxCell><mxCell id="115" value="انتخاب روش ارسال و پرداخت" style="shape=parallelogram;perimeter=parallelogramPerimeter;whiteSpace=wrap;html=1;fixedSize=1;fillColor=#1ba1e2;strokeColor=#006EAF;fontColor=#ffffff;" parent="1" vertex="1"><mxGeometry x="550" y="710" width="130" height="60" as="geometry"/></mxCell><mxCell id="119" value="" style="edgeStyle=orthogonalEdgeStyle;rounded=0;orthogonalLoop=1;jettySize=auto;html=1;" parent="1" source="116" target="118" edge="1"><mxGeometry relative="1" as="geometry"/></mxCell><mxCell id="116" value="ثبت مرسوله" style="whiteSpace=wrap;html=1;fillColor=#0050ef;strokeColor=#001DBC;fontColor=#ffffff;" parent="1" vertex="1"><mxGeometry x="560" y="805" width="110" height="35" as="geometry"/></mxCell><mxCell id="118" value="دریافت کد رهگیری" style="shape=document;whiteSpace=wrap;html=1;boundedLbl=1;fillColor=#008a00;strokeColor=#005700;fontColor=#ffffff;" parent="1" vertex="1"><mxGeometry x="560" y="900" width="110" height="50" as="geometry"/></mxCell><mxCell id="132" style="edgeStyle=orthogonalEdgeStyle;rounded=0;orthogonalLoop=1;jettySize=auto;html=1;exitX=0.5;exitY=1;exitDx=0;exitDy=0;entryX=0.5;entryY=0;entryDx=0;entryDy=0;" parent="1" source="122" target="125" edge="1"><mxGeometry relative="1" as="geometry"/></mxCell><mxCell id="122" value="انتخاب محصول از لیست" style="whiteSpace=wrap;html=1;fillColor=#0050ef;strokeColor=#001DBC;fontColor=#ffffff;" parent="1" vertex="1"><mxGeometry x="350" y="538.75" width="120" height="60" as="geometry"/></mxCell><mxCell id="133" style="edgeStyle=orthogonalEdgeStyle;rounded=0;orthogonalLoop=1;jettySize=auto;html=1;exitX=0.5;exitY=1;exitDx=0;exitDy=0;entryX=0.586;entryY=-0.057;entryDx=0;entryDy=0;entryPerimeter=0;" parent="1" source="125" target="127" edge="1"><mxGeometry relative="1" as="geometry"/></mxCell><mxCell id="125" value="خدمات ارزش افزوده" style="shape=parallelogram;perimeter=parallelogramPerimeter;whiteSpace=wrap;html=1;fixedSize=1;fillColor=#1ba1e2;strokeColor=#006EAF;fontColor=#ffffff;" parent="1" vertex="1"><mxGeometry x="350" y="620" width="130" height="60" as="geometry"/></mxCell><mxCell id="134" style="edgeStyle=orthogonalEdgeStyle;rounded=0;orthogonalLoop=1;jettySize=auto;html=1;exitX=0.75;exitY=1;exitDx=0;exitDy=0;entryX=0.75;entryY=0;entryDx=0;entryDy=0;" parent="1" source="127" target="129" edge="1"><mxGeometry relative="1" as="geometry"/></mxCell><mxCell id="127" value="انتخاب روش ارسال و پرداخت" style="shape=parallelogram;perimeter=parallelogramPerimeter;whiteSpace=wrap;html=1;fixedSize=1;fillColor=#1ba1e2;strokeColor=#006EAF;fontColor=#ffffff;" parent="1" vertex="1"><mxGeometry x="340" y="710" width="130" height="60" as="geometry"/></mxCell><mxCell id="135" style="edgeStyle=orthogonalEdgeStyle;rounded=0;orthogonalLoop=1;jettySize=auto;html=1;exitX=0.25;exitY=1;exitDx=0;exitDy=0;" parent="1" source="129" target="131" edge="1"><mxGeometry relative="1" as="geometry"/></mxCell><mxCell id="129" value="ثبت مرسوله" style="whiteSpace=wrap;html=1;fillColor=#0050ef;strokeColor=#001DBC;fontColor=#ffffff;" parent="1" vertex="1"><mxGeometry x="355" y="800" width="110" height="35" as="geometry"/></mxCell><mxCell id="131" value="دریافت کد رهگیری" style="shape=document;whiteSpace=wrap;html=1;boundedLbl=1;fillColor=#008a00;strokeColor=#005700;fontColor=#ffffff;" parent="1" vertex="1"><mxGeometry x="340" y="880" width="110" height="50" as="geometry"/></mxCell><mxCell id="144" value="" style="edgeStyle=orthogonalEdgeStyle;rounded=0;orthogonalLoop=1;jettySize=auto;html=1;" parent="1" source="141" target="143" edge="1"><mxGeometry relative="1" as="geometry"/></mxCell><mxCell id="141" value="اطلاعات سرویس" style="whiteSpace=wrap;html=1;fillColor=#0050ef;strokeColor=#001DBC;fontColor=#ffffff;" parent="1" vertex="1"><mxGeometry x="920" y="340" width="80" height="40" as="geometry"/></mxCell><mxCell id="152" style="edgeStyle=orthogonalEdgeStyle;rounded=0;orthogonalLoop=1;jettySize=auto;html=1;exitX=0.5;exitY=1;exitDx=0;exitDy=0;entryX=0.5;entryY=0;entryDx=0;entryDy=0;" parent="1" source="143" target="151" edge="1"><mxGeometry relative="1" as="geometry"/></mxCell><mxCell id="143" value="اطلاعات فرستنده" style="shape=parallelogram;perimeter=parallelogramPerimeter;whiteSpace=wrap;html=1;fixedSize=1;fillColor=#1ba1e2;strokeColor=#006EAF;fontColor=#ffffff;" parent="1" vertex="1"><mxGeometry x="910" y="410" width="100" height="30" as="geometry"/></mxCell><mxCell id="151" value="نوع سرویس" style="rounded=1;whiteSpace=wrap;html=1;fillColor=#0050ef;strokeColor=#001DBC;fontColor=#ffffff;" parent="1" vertex="1"><mxGeometry x="910" y="470" width="100" height="50" as="geometry"/></mxCell><mxCell id="166" value="" style="edgeStyle=orthogonalEdgeStyle;rounded=0;orthogonalLoop=1;jettySize=auto;html=1;" parent="1" source="165" target="151" edge="1"><mxGeometry relative="1" as="geometry"/></mxCell><mxCell id="170" value="" style="edgeStyle=orthogonalEdgeStyle;rounded=0;orthogonalLoop=1;jettySize=auto;html=1;" parent="1" source="165" target="169" edge="1"><mxGeometry relative="1" as="geometry"/></mxCell><mxCell id="165" value="پسکرایه" style="rounded=0;whiteSpace=wrap;html=1;fillColor=#0050ef;strokeColor=#001DBC;fontColor=#ffffff;" parent="1" vertex="1"><mxGeometry x="960" y="560" width="70" height="25" as="geometry"/></mxCell><mxCell id="168" value="" style="edgeStyle=orthogonalEdgeStyle;rounded=0;orthogonalLoop=1;jettySize=auto;html=1;" parent="1" source="167" target="151" edge="1"><mxGeometry relative="1" as="geometry"/></mxCell><mxCell id="190" value="" style="edgeStyle=orthogonalEdgeStyle;rounded=0;orthogonalLoop=1;jettySize=auto;html=1;" parent="1" source="167" target="189" edge="1"><mxGeometry relative="1" as="geometry"/></mxCell><mxCell id="167" value="پیش کرایه" style="rounded=0;whiteSpace=wrap;html=1;fillColor=#0050ef;strokeColor=#001DBC;fontColor=#ffffff;" parent="1" vertex="1"><mxGeometry x="850" y="565" width="60" height="30" as="geometry"/></mxCell><mxCell id="173" value="" style="edgeStyle=orthogonalEdgeStyle;rounded=0;orthogonalLoop=1;jettySize=auto;html=1;" parent="1" source="169" target="172" edge="1"><mxGeometry relative="1" as="geometry"/></mxCell><mxCell id="169" value="دریافت اکسل&amp;nbsp;&lt;br&gt;پسکرایه" style="shape=parallelogram;perimeter=parallelogramPerimeter;whiteSpace=wrap;html=1;fixedSize=1;rounded=0;fillColor=#1ba1e2;strokeColor=#006EAF;fontColor=#ffffff;" parent="1" vertex="1"><mxGeometry x="950" y="620" width="77.5" height="32.5" as="geometry"/></mxCell><mxCell id="175" value="" style="edgeStyle=orthogonalEdgeStyle;rounded=0;orthogonalLoop=1;jettySize=auto;html=1;" parent="1" source="172" target="174" edge="1"><mxGeometry relative="1" as="geometry"/></mxCell><mxCell id="172" value="بارگزاری اکسل" style="shape=parallelogram;perimeter=parallelogramPerimeter;whiteSpace=wrap;html=1;fixedSize=1;rounded=0;fillColor=#1ba1e2;strokeColor=#006EAF;fontColor=#ffffff;" parent="1" vertex="1"><mxGeometry x="939.38" y="680" width="98.75" height="31.25" as="geometry"/></mxCell><mxCell id="177" value="" style="edgeStyle=orthogonalEdgeStyle;rounded=0;orthogonalLoop=1;jettySize=auto;html=1;" parent="1" source="174" target="176" edge="1"><mxGeometry relative="1" as="geometry"/></mxCell><mxCell id="183" value="" style="edgeStyle=orthogonalEdgeStyle;rounded=0;orthogonalLoop=1;jettySize=auto;html=1;" parent="1" source="174" target="182" edge="1"><mxGeometry relative="1" as="geometry"/></mxCell><mxCell id="174" value="شارژ کیف پول" style="rhombus;whiteSpace=wrap;html=1;rounded=0;fillColor=#a20025;strokeColor=#6F0000;fontColor=#ffffff;" parent="1" vertex="1"><mxGeometry x="960" y="743.43" width="58.76" height="53.13" as="geometry"/></mxCell><mxCell id="181" value="" style="edgeStyle=orthogonalEdgeStyle;rounded=0;orthogonalLoop=1;jettySize=auto;html=1;" parent="1" source="176" target="180" edge="1"><mxGeometry relative="1" as="geometry"/></mxCell><mxCell id="176" value="ثبت سفارش" style="shape=parallelogram;perimeter=parallelogramPerimeter;whiteSpace=wrap;html=1;fixedSize=1;rounded=0;fillColor=#1ba1e2;strokeColor=#006EAF;fontColor=#ffffff;" parent="1" vertex="1"><mxGeometry x="978.12" y="873.13" width="79.38" height="36.87" as="geometry"/></mxCell><mxCell id="180" value="دریافت کد رهگیری" style="shape=document;whiteSpace=wrap;html=1;boundedLbl=1;rounded=0;fillColor=#008a00;strokeColor=#005700;fontColor=#ffffff;" parent="1" vertex="1"><mxGeometry x="945.15" y="938.43" width="99.69" height="41.57" as="geometry"/></mxCell><mxCell id="185" style="edgeStyle=orthogonalEdgeStyle;rounded=0;orthogonalLoop=1;jettySize=auto;html=1;exitX=0.5;exitY=1;exitDx=0;exitDy=0;entryX=0;entryY=0.5;entryDx=0;entryDy=0;" parent="1" source="182" target="176" edge="1"><mxGeometry relative="1" as="geometry"><Array as="points"><mxPoint x="909" y="892"/><mxPoint x="988" y="892"/></Array></mxGeometry></mxCell><mxCell id="182" value="شارژ کیف پول" style="rounded=0;whiteSpace=wrap;html=1;fillColor=#0050ef;strokeColor=#001DBC;fontColor=#ffffff;" parent="1" vertex="1"><mxGeometry x="878.76" y="807.5" width="60.62" height="30" as="geometry"/></mxCell><mxCell id="186" style="edgeStyle=orthogonalEdgeStyle;rounded=0;orthogonalLoop=1;jettySize=auto;html=1;exitX=0.5;exitY=1;exitDx=0;exitDy=0;entryX=0;entryY=0.75;entryDx=0;entryDy=0;" parent="1" source="167" target="167" edge="1"><mxGeometry relative="1" as="geometry"/></mxCell><mxCell id="192" value="" style="edgeStyle=orthogonalEdgeStyle;rounded=0;orthogonalLoop=1;jettySize=auto;html=1;" parent="1" source="189" target="191" edge="1"><mxGeometry relative="1" as="geometry"/></mxCell><mxCell id="189" value="دریافت اکسل پیش کرایه" style="shape=parallelogram;perimeter=parallelogramPerimeter;whiteSpace=wrap;html=1;fixedSize=1;rounded=0;fillColor=#1ba1e2;strokeColor=#006EAF;fontColor=#ffffff;" parent="1" vertex="1"><mxGeometry x="790" y="620" width="130" height="40" as="geometry"/></mxCell><mxCell id="196" style="edgeStyle=orthogonalEdgeStyle;rounded=0;orthogonalLoop=1;jettySize=auto;html=1;exitX=0.25;exitY=1;exitDx=0;exitDy=0;entryX=0.25;entryY=0;entryDx=0;entryDy=0;" parent="1" source="191" target="195" edge="1"><mxGeometry relative="1" as="geometry"/></mxCell><mxCell id="191" value="بارگزاری اکسل" style="shape=parallelogram;perimeter=parallelogramPerimeter;whiteSpace=wrap;html=1;fixedSize=1;rounded=0;fillColor=#1ba1e2;strokeColor=#006EAF;fontColor=#ffffff;" parent="1" vertex="1"><mxGeometry x="790" y="690" width="99.38" height="40" as="geometry"/></mxCell><mxCell id="198" value="" style="edgeStyle=orthogonalEdgeStyle;rounded=0;orthogonalLoop=1;jettySize=auto;html=1;" parent="1" source="195" target="197" edge="1"><mxGeometry relative="1" as="geometry"/></mxCell><mxCell id="195" value="ثبت سفارش" style="rounded=1;whiteSpace=wrap;html=1;fillColor=#0050ef;strokeColor=#001DBC;fontColor=#ffffff;" parent="1" vertex="1"><mxGeometry x="790" y="752.49" width="80" height="35" as="geometry"/></mxCell><mxCell id="199" style="edgeStyle=orthogonalEdgeStyle;rounded=0;orthogonalLoop=1;jettySize=auto;html=1;exitX=0.5;exitY=1;exitDx=0;exitDy=0;entryX=0;entryY=0.75;entryDx=0;entryDy=0;" parent="1" source="197" target="180" edge="1"><mxGeometry relative="1" as="geometry"/></mxCell><mxCell id="197" value="پرداخت آنلاین" style="whiteSpace=wrap;html=1;rounded=1;fillColor=#0050ef;strokeColor=#001DBC;fontColor=#ffffff;" parent="1" vertex="1"><mxGeometry x="795" y="820" width="70" height="25.01" as="geometry"/></mxCell><mxCell id="204" value="" style="edgeStyle=orthogonalEdgeStyle;rounded=0;orthogonalLoop=1;jettySize=auto;html=1;" parent="1" source="202" target="203" edge="1"><mxGeometry relative="1" as="geometry"/></mxCell><mxCell id="202" value="انبوه" style="rounded=0;whiteSpace=wrap;html=1;fillColor=#0050ef;strokeColor=#001DBC;fontColor=#ffffff;" parent="1" vertex="1"><mxGeometry x="150" y="265" width="80" height="40" as="geometry"/></mxCell><mxCell id="206" value="" style="edgeStyle=orthogonalEdgeStyle;rounded=0;orthogonalLoop=1;jettySize=auto;html=1;" parent="1" source="203" target="205" edge="1"><mxGeometry relative="1" as="geometry"/></mxCell><mxCell id="203" value="انتخاب سرویس&amp;nbsp;" style="shape=parallelogram;perimeter=parallelogramPerimeter;whiteSpace=wrap;html=1;fixedSize=1;rounded=0;fillColor=#1ba1e2;strokeColor=#006EAF;fontColor=#ffffff;" parent="1" vertex="1"><mxGeometry x="130" y="350" width="120" height="60" as="geometry"/></mxCell><mxCell id="208" value="" style="edgeStyle=orthogonalEdgeStyle;rounded=0;orthogonalLoop=1;jettySize=auto;html=1;" parent="1" source="205" target="207" edge="1"><mxGeometry relative="1" as="geometry"/></mxCell><mxCell id="205" value="انتخاب فرستنده" style="shape=parallelogram;perimeter=parallelogramPerimeter;whiteSpace=wrap;html=1;fixedSize=1;rounded=0;fillColor=#1ba1e2;strokeColor=#006EAF;fontColor=#ffffff;" parent="1" vertex="1"><mxGeometry x="130" y="440" width="120" height="60" as="geometry"/></mxCell><mxCell id="210" value="" style="edgeStyle=orthogonalEdgeStyle;rounded=0;orthogonalLoop=1;jettySize=auto;html=1;" parent="1" source="207" target="209" edge="1"><mxGeometry relative="1" as="geometry"/></mxCell><mxCell id="207" value="وارد کردن مشخصات مرسولات" style="whiteSpace=wrap;html=1;rounded=0;fillColor=#0050ef;strokeColor=#001DBC;fontColor=#ffffff;" parent="1" vertex="1"><mxGeometry x="130" y="540" width="120" height="40" as="geometry"/></mxCell><mxCell id="212" value="" style="edgeStyle=orthogonalEdgeStyle;rounded=0;orthogonalLoop=1;jettySize=auto;html=1;" parent="1" source="209" target="211" edge="1"><mxGeometry relative="1" as="geometry"/></mxCell><mxCell id="209" value="ثبت سفارش" style="whiteSpace=wrap;html=1;rounded=0;fillColor=#0050ef;strokeColor=#001DBC;fontColor=#ffffff;" parent="1" vertex="1"><mxGeometry x="130" y="650" width="120" height="30" as="geometry"/></mxCell><mxCell id="211" value="دریافت کد رهگیری" style="shape=document;whiteSpace=wrap;html=1;boundedLbl=1;rounded=0;fillColor=#008a00;strokeColor=#005700;fontColor=#ffffff;" parent="1" vertex="1"><mxGeometry x="130" y="735" width="120" height="80" as="geometry"/></mxCell><mxCell id="217" style="edgeStyle=orthogonalEdgeStyle;rounded=0;orthogonalLoop=1;jettySize=auto;html=1;exitX=0.5;exitY=1;exitDx=0;exitDy=0;entryX=0.25;entryY=0;entryDx=0;entryDy=0;" parent="1" source="213" target="61" edge="1"><mxGeometry relative="1" as="geometry"/></mxCell><mxCell id="213" value="پس کرایه&amp;nbsp;" style="rounded=0;whiteSpace=wrap;html=1;fillColor=#0050ef;strokeColor=#001DBC;fontColor=#ffffff;" parent="1" vertex="1"><mxGeometry x="1057.5" y="610" width="60" height="20" as="geometry"/></mxCell><mxCell id="218" style="edgeStyle=orthogonalEdgeStyle;rounded=0;orthogonalLoop=1;jettySize=auto;html=1;exitX=0.5;exitY=1;exitDx=0;exitDy=0;entryX=0.874;entryY=-0.014;entryDx=0;entryDy=0;entryPerimeter=0;" parent="1" source="214" target="61" edge="1"><mxGeometry relative="1" as="geometry"/></mxCell><mxCell id="214" value="COD" style="rounded=0;whiteSpace=wrap;html=1;fillColor=#0050ef;strokeColor=#001DBC;fontColor=#ffffff;" parent="1" vertex="1"><mxGeometry x="1130" y="608" width="45" height="22" as="geometry"/></mxCell></root></mxGraphModel></diagram></mxfile>